<svg xmlns="http://www.w3.org/2000/svg" width="100.51" height="50" viewBox="0 0 100.51 50">
  <g id="Grupo_85" data-name="Grupo 85" transform="translate(-673 -335)">
    <g id="Grupo_1" data-name="Grupo 1" transform="translate(673 356.924)">
      <path id="Caminho_1" data-name="Caminho 1" d="M2294.6,9643v3.064h5.312v4.037H2294.6v7.2h-4.847V9638.97h10.7V9643Z" transform="translate(-2289.75 -9638.97)" fill="#f1b457" fill-rule="evenodd"/>
    </g>
    <g id="Grupo_2" data-name="Grupo 2" transform="translate(684.558 356.927)">
      <path id="Caminho_2" data-name="Caminho 2" d="M5051.8,9640.531a2.161,2.161,0,0,1,0,3.11,2.254,2.254,0,0,1-3.166,0,2.112,2.112,0,0,1-.656-1.557,2.14,2.14,0,0,1,.656-1.568,2.164,2.164,0,0,1,1.583-.656A2.25,2.25,0,0,1,5051.8,9640.531Zm.661,17.658h-4.5v-12.473h4.5Z" transform="translate(-5047.96 -9639.86)" fill="#f1b457" fill-rule="evenodd"/>
    </g>
    <g id="Grupo_3" data-name="Grupo 3" transform="translate(747.047 356.927)">
      <path id="Caminho_3" data-name="Caminho 3" d="M19963.625,9640.531a2.157,2.157,0,0,1,0,3.11,2.173,2.173,0,0,1-1.582.649,2.149,2.149,0,0,1-1.574-.649,2.064,2.064,0,0,1-.66-1.557,2.09,2.09,0,0,1,.66-1.568,2.125,2.125,0,0,1,1.574-.656A2.245,2.245,0,0,1,19963.625,9640.531Zm.662,17.658h-4.5v-12.473h4.5Z" transform="translate(-19959.789 -9639.86)" fill="#f1b457" fill-rule="evenodd"/>
    </g>
    <g id="Grupo_4" data-name="Grupo 4" transform="translate(690.279 362.393)">
      <path id="Caminho_4" data-name="Caminho 4" d="M6417.682,10946.236h.045a4.463,4.463,0,0,1,1.767-1.561,5.552,5.552,0,0,1,2.288-.436,4.345,4.345,0,0,1,3.673,1.438,5.977,5.977,0,0,1,1.1,3.743v7.684h-4.5v-6.81c0-.164-.012-.326-.026-.486a2.965,2.965,0,0,0-.447-1.4,1.682,1.682,0,0,0-1.557-.643,1.941,1.941,0,0,0-1.849.862,3.97,3.97,0,0,0-.5,2.03v6.444h-4.5v-12.474h4.5Z" transform="translate(-6413.18 -10944.24)" fill="#f1b457" fill-rule="evenodd"/>
    </g>
    <g id="Grupo_5" data-name="Grupo 5" transform="translate(720.933 362.393)">
      <path id="Caminho_5" data-name="Caminho 5" d="M13732.616,10946.236h.049a4.411,4.411,0,0,1,1.768-1.561,5.531,5.531,0,0,1,2.287-.436,4.334,4.334,0,0,1,3.67,1.438,5.984,5.984,0,0,1,1.1,3.743v7.684h-4.5v-6.81c0-.164-.009-.326-.023-.486a3.021,3.021,0,0,0-.447-1.4,1.676,1.676,0,0,0-1.556-.643,1.95,1.95,0,0,0-1.854.862,4,4,0,0,0-.5,2.03v6.444h-4.5v-12.474h4.5Z" transform="translate(-13728.117 -10944.24)" fill="#f1b457" fill-rule="evenodd"/>
    </g>
    <g id="Grupo_6" data-name="Grupo 6" transform="translate(735.458 362.393)">
      <path id="Caminho_6" data-name="Caminho 6" d="M17204.453,10944.895v3.744a6.388,6.388,0,0,0-1.09-.6,3.1,3.1,0,0,0-1.236-.254,3.029,3.029,0,0,0-2.186.874,2.9,2.9,0,0,0-.9,2.164,2.931,2.931,0,0,0,.893,2.2,3.117,3.117,0,0,0,2.275.863c.078,0,.166,0,.258-.013a1.977,1.977,0,0,0,.26-.036,3.553,3.553,0,0,0,.924-.278,2.939,2.939,0,0,0,.8-.525v3.722a6.79,6.79,0,0,1-1.543.536,7.877,7.877,0,0,1-1.621.169,7,7,0,0,1-4.857-1.838,5.985,5.985,0,0,1-2.041-4.655,6.353,6.353,0,0,1,2.053-4.9,7.177,7.177,0,0,1,5.041-1.884,6.473,6.473,0,0,1,1.547.184,5.75,5.75,0,0,1,1.422.544Z" transform="translate(-17194.391 -10944.189)" fill="#f1b457" fill-rule="evenodd"/>
    </g>
    <g id="Grupo_7" data-name="Grupo 7" transform="translate(752.696 362.393)">
      <path id="Caminho_7" data-name="Caminho 7" d="M21322.77,10957.024h-4.5v-.979a5.164,5.164,0,0,1-3.883,1.391,5.84,5.84,0,0,1-4.607-1.983,6.7,6.7,0,0,1-1.793-4.655,6.8,6.8,0,0,1,1.766-4.656,5.876,5.876,0,0,1,4.59-1.98h.244a1.393,1.393,0,0,1,.244.022,6.467,6.467,0,0,1,3.439,1.013v-.645h4.5Zm-9.828-8.423h0a3.017,3.017,0,0,0-.811,2.105,2.942,2.942,0,0,0,.811,2.115,2.974,2.974,0,0,0,2.258.852,2.838,2.838,0,0,0,3.072-2.982,3.072,3.072,0,0,0-.8-2.113,2.9,2.9,0,0,0-2.275-.895A2.993,2.993,0,0,0,21312.941,10948.6Z" transform="translate(-21307.988 -10944.16)" fill="#f1b457" fill-rule="evenodd"/>
    </g>
    <g id="Grupo_8" data-name="Grupo 8" transform="translate(704.903 362.393)">
      <path id="Caminho_8" data-name="Caminho 8" d="M9917.586,10957.024h-4.5v-.979a5.164,5.164,0,0,1-3.883,1.391,5.84,5.84,0,0,1-4.607-1.983,6.7,6.7,0,0,1-1.793-4.655,6.789,6.789,0,0,1,1.768-4.656,5.862,5.862,0,0,1,4.587-1.98h.244a1.343,1.343,0,0,1,.244.022,6.47,6.47,0,0,1,3.44,1.013v-.645h4.5Zm-9.834-8.423h0a3.007,3.007,0,0,0-.809,2.105,2.932,2.932,0,0,0,.809,2.115,3.436,3.436,0,0,0,4.528,0,3.019,3.019,0,0,0,.8-2.131,3.069,3.069,0,0,0-.8-2.113,2.866,2.866,0,0,0-2.266-.895A2.991,2.991,0,0,0,9907.752,10948.6Z" transform="translate(-9902.801 -10944.16)" fill="#f1b457" fill-rule="evenodd"/>
    </g>
    <g id="Grupo_9" data-name="Grupo 9" transform="translate(769.008 356.924)">
      <path id="Caminho_9" data-name="Caminho 9" d="M25205,9657.3h-4.5V9638.97h4.5Z" transform="translate(-25200.5 -9638.97)" fill="#f1b457" fill-rule="evenodd"/>
    </g>
    <g id="Grupo_10" data-name="Grupo 10" transform="translate(700.701 335)">
      <path id="Caminho_10" data-name="Caminho 10" d="M8945.238,4428.249l-22.629-21.008-22.479,21.008h13.453l1.023.919,12.186-11.453h-9.012l-7.881,7.236,1.977,1.767h-7.852l18.589-17.369,18.716,17.369h-8.065l1.973-1.767-7.034-6.4-4.535,4.2,6.861,6.415,1.024-.919Z" transform="translate(-8900.13 -4407.24)" fill="#f1b457" fill-rule="evenodd"/>
    </g>
    <path id="Subtração_1" data-name="Subtração 1" d="M100.51,7.417H0V0H100.51V7.417ZM38.258,1.725a2.19,2.19,0,0,0-.833.161,2.058,2.058,0,0,0-.705.454,2.009,2.009,0,0,0-.638,1.486,1.993,1.993,0,0,0,.638,1.486,2.082,2.082,0,0,0,.705.458,2.19,2.19,0,0,0,.833.161,2.166,2.166,0,0,0,.833-.161,2.121,2.121,0,0,0,.716-.458,2.076,2.076,0,0,0,.469-2.292,1.961,1.961,0,0,0-.469-.679,2.094,2.094,0,0,0-.709-.454A2.24,2.24,0,0,0,38.258,1.725Zm31.824,3.38h1.575l.211.717h1.1l-1.4-4.007h-1.4L68.761,5.822h1.111l.21-.716Zm-3.77-3.29V5.822h1.125V1.816ZM62.755,4.258h0L63.7,5.822H64.95L63.835,4.205a1.167,1.167,0,0,0,.679-.383,1.175,1.175,0,0,0,.233-.758A1.32,1.32,0,0,0,64.63,2.5a1.159,1.159,0,0,0-.341-.42,1.2,1.2,0,0,0-.465-.207,4.855,4.855,0,0,0-.946-.06H61.716V5.822h1.039V4.258Zm-5.229.848H59.1l.206.717h1.1L59.007,1.816H57.616L56.209,5.822h1.1l.214-.716Zm-3.77-3.29V5.822h1.126V1.816Zm-3.973,0V5.822h2.491V4.888h-1.38V1.816Zm-2.93,0V5.822H47.97V1.816Zm-4.806,0V5.822h1.148a7.73,7.73,0,0,0,1-.045,1.571,1.571,0,0,0,.518-.158.95.95,0,0,0,.394-.375,1.172,1.172,0,0,0,.139-.567A1.006,1.006,0,0,0,45,3.965a.951.951,0,0,0-.679-.3,1.164,1.164,0,0,0,.567-.312.791.791,0,0,0,.172-.54.928.928,0,0,0-.12-.48.835.835,0,0,0-.337-.33,1.594,1.594,0,0,0-.476-.15,6.848,6.848,0,0,0-.961-.041ZM33.381,3.194h0c.007.106.015.207.023.3v.021c0,.057.009.111.013.165.012.164.034.31.049.405L33.7,5.822h1.039L34.12,1.816H33.013l-.619,2.06c-.032.106-.056.2-.076.276l-.01.039a2.392,2.392,0,0,0-.041.236,2.311,2.311,0,0,0-.105-.473.2.2,0,0,1-.026-.075l-.611-2.063h-1.1l-.63,4.007h1.036l.24-1.733c.011-.089.022-.179.033-.265l0-.012.007-.054.014-.115c.005-.071.012-.142.018-.215s.014-.158.02-.236a3.6,3.6,0,0,0,.154.634l.01.046,0,.01h0c.006.026.011.047.013.063L31.9,5.822h.743l.551-1.876.008-.026c.008-.025.018-.057.026-.094A4.2,4.2,0,0,0,33.381,3.194ZM27.138,1.816V5.822H28.26V1.816ZM43.461,5h-.386V4.13h.409a1.066,1.066,0,0,1,.555.1.4.4,0,0,1,.146.353.333.333,0,0,1-.161.322A1.139,1.139,0,0,1,43.461,5Zm-5.2,0a.98.98,0,0,1-.762-.33,1.212,1.212,0,0,1-.3-.848,1.216,1.216,0,0,1,.3-.84,1.028,1.028,0,0,1,1.523,0,1.2,1.2,0,0,1,.308.84,1.2,1.2,0,0,1-.3.84A.994.994,0,0,1,38.258,5Zm33.163-.675H70.314L70.731,3c.007-.025.014-.051.02-.076l0-.015c.014-.049.03-.11.043-.168l.028-.11c.014-.055.029-.113.043-.171.027.111.052.21.072.289v0l.013.052c.024.093.042.157.056.195l.409,1.324Zm-12.548,0H57.766L58.175,3c.025-.083.047-.168.069-.25l0-.006v0c.02-.079.041-.166.068-.281.039.145.068.258.09.345l.015.06,0,.011c.013.051.024.094.035.124l.416,1.324Zm4.093-.619h-.211V2.656h.225a.8.8,0,0,1,.517.127.517.517,0,0,1,.154.428.433.433,0,0,1-.161.375A.9.9,0,0,1,62.965,3.71ZM43.3,3.418h-.225v-.81h.24a1.165,1.165,0,0,1,.559.09.353.353,0,0,1,.143.326.322.322,0,0,1-.154.3A1.217,1.217,0,0,1,43.3,3.418Z" transform="translate(673 377.583)" fill="#f1b457"/>
    <g id="Grupo_23" data-name="Grupo 23" transform="translate(731.186 378.491)">
      <path id="Caminho_23" data-name="Caminho 23" d="M16175.733,14785.949l-.784.338-.15-.349.781-.339Z" transform="translate(-16174.799 -14785.6)" fill="#f1b457" fill-rule="evenodd"/>
    </g>
  </g>
</svg>
