<svg xmlns="http://www.w3.org/2000/svg" width="120.612" height="60" viewBox="0 0 120.612 60">
  <g id="Grupo_24" data-name="Grupo 24" transform="translate(-673 -335)">
    <g id="Grupo_1" data-name="Grupo 1" transform="translate(673 361.308)">
      <path id="Caminho_1" data-name="Caminho 1" d="M2295.566,9643.81v3.678h6.375v4.845h-6.375v8.638h-5.816v-22h12.844v4.839Z" transform="translate(-2289.75 -9638.971)" fill="#ebd1a9" fill-rule="evenodd"/>
    </g>
    <g id="Grupo_2" data-name="Grupo 2" transform="translate(686.87 361.313)">
      <path id="Caminho_2" data-name="Caminho 2" d="M5052.565,9640.666a2.592,2.592,0,0,1,0,3.732,2.707,2.707,0,0,1-3.8,0,2.538,2.538,0,0,1-.788-1.868,2.567,2.567,0,0,1,.788-1.882,2.6,2.6,0,0,1,1.9-.788A2.7,2.7,0,0,1,5052.565,9640.666Zm.793,21.189h-5.4v-14.968h5.4Z" transform="translate(-5047.96 -9639.86)" fill="#ebd1a9" fill-rule="evenodd"/>
    </g>
    <g id="Grupo_3" data-name="Grupo 3" transform="translate(761.856 361.313)">
      <path id="Caminho_3" data-name="Caminho 3" d="M19964.393,9640.666a2.588,2.588,0,0,1,0,3.732,2.695,2.695,0,0,1-3.789,0,2.485,2.485,0,0,1-.791-1.868,2.513,2.513,0,0,1,.791-1.882,2.557,2.557,0,0,1,1.891-.788A2.7,2.7,0,0,1,19964.393,9640.666Zm.795,21.189h-5.4v-14.968h5.4Z" transform="translate(-19959.789 -9639.86)" fill="#ebd1a9" fill-rule="evenodd"/>
    </g>
    <g id="Grupo_4" data-name="Grupo 4" transform="translate(693.735 367.872)">
      <path id="Caminho_4" data-name="Caminho 4" d="M6418.582,10946.635h.054a5.358,5.358,0,0,1,2.121-1.871,6.66,6.66,0,0,1,2.746-.523c2.057,0,3.521.573,4.407,1.725a7.172,7.172,0,0,1,1.319,4.492v9.221h-5.4v-8.172c0-.2-.014-.391-.031-.584a3.58,3.58,0,0,0-.536-1.679,2.02,2.02,0,0,0-1.868-.771,2.331,2.331,0,0,0-2.22,1.035,4.769,4.769,0,0,0-.594,2.436v7.734h-5.4v-14.969h5.4Z" transform="translate(-6413.18 -10944.24)" fill="#ebd1a9" fill-rule="evenodd"/>
    </g>
    <g id="Grupo_5" data-name="Grupo 5" transform="translate(730.519 367.872)">
      <path id="Caminho_5" data-name="Caminho 5" d="M13733.515,10946.635h.059a5.3,5.3,0,0,1,2.121-1.871,6.642,6.642,0,0,1,2.745-.523q3.081,0,4.4,1.725a7.176,7.176,0,0,1,1.323,4.492v9.221h-5.4v-8.172c0-.2-.01-.391-.028-.584a3.634,3.634,0,0,0-.535-1.679,2.017,2.017,0,0,0-1.868-.771,2.341,2.341,0,0,0-2.224,1.035,4.808,4.808,0,0,0-.595,2.436v7.734h-5.4v-14.969h5.4Z" transform="translate(-13728.117 -10944.24)" fill="#ebd1a9" fill-rule="evenodd"/>
    </g>
    <g id="Grupo_6" data-name="Grupo 6" transform="translate(747.95 367.872)">
      <path id="Caminho_6" data-name="Caminho 6" d="M17206.465,10945.035v4.493a7.6,7.6,0,0,0-1.307-.715,3.7,3.7,0,0,0-1.484-.306,3.636,3.636,0,0,0-2.623,1.049,3.724,3.724,0,0,0-.01,5.239,3.738,3.738,0,0,0,2.729,1.036c.094,0,.2,0,.309-.015a2.249,2.249,0,0,0,.313-.044,4.31,4.31,0,0,0,1.109-.333,3.534,3.534,0,0,0,.965-.632v4.467a8.118,8.118,0,0,1-1.852.643,9.373,9.373,0,0,1-1.945.2,8.4,8.4,0,0,1-5.828-2.206,7.185,7.185,0,0,1-2.449-5.587,7.621,7.621,0,0,1,2.463-5.879,8.608,8.608,0,0,1,6.049-2.26,7.719,7.719,0,0,1,1.855.22,6.831,6.831,0,0,1,1.707.653Z" transform="translate(-17194.391 -10944.19)" fill="#ebd1a9" fill-rule="evenodd"/>
    </g>
    <g id="Grupo_7" data-name="Grupo 7" transform="translate(768.636 367.872)">
      <path id="Caminho_7" data-name="Caminho 7" d="M21325.725,10959.6h-5.4v-1.175a6.2,6.2,0,0,1-4.66,1.669,7.009,7.009,0,0,1-5.529-2.381,8.044,8.044,0,0,1-2.15-5.586,8.15,8.15,0,0,1,2.119-5.587,7.048,7.048,0,0,1,5.508-2.377h.291a1.564,1.564,0,0,1,.293.026,7.766,7.766,0,0,1,4.129,1.216v-.773h5.4Zm-11.793-10.106h0a3.623,3.623,0,0,0-.973,2.526,3.533,3.533,0,0,0,.973,2.538,3.568,3.568,0,0,0,2.709,1.021,3.406,3.406,0,0,0,3.688-3.578,3.69,3.69,0,0,0-.957-2.536,3.478,3.478,0,0,0-2.73-1.075A3.587,3.587,0,0,0,21313.932,10949.49Z" transform="translate(-21307.988 -10944.16)" fill="#ebd1a9" fill-rule="evenodd"/>
    </g>
    <g id="Grupo_8" data-name="Grupo 8" transform="translate(711.283 367.872)">
      <path id="Caminho_8" data-name="Caminho 8" d="M9920.543,10959.6h-5.4v-1.175a6.2,6.2,0,0,1-4.659,1.669,7.008,7.008,0,0,1-5.529-2.381,8.031,8.031,0,0,1-2.151-5.586,8.142,8.142,0,0,1,2.121-5.587,7.031,7.031,0,0,1,5.5-2.377h.293a1.528,1.528,0,0,1,.293.026,7.768,7.768,0,0,1,4.129,1.216v-.773h5.4Zm-11.8-10.106h0a3.608,3.608,0,0,0-.971,2.526,3.519,3.519,0,0,0,.971,2.538,4.124,4.124,0,0,0,5.434,0,3.625,3.625,0,0,0,.965-2.557,3.683,3.683,0,0,0-.965-2.536,3.439,3.439,0,0,0-2.719-1.075A3.583,3.583,0,0,0,9908.742,10949.49Z" transform="translate(-9902.801 -10944.16)" fill="#ebd1a9" fill-rule="evenodd"/>
    </g>
    <g id="Grupo_9" data-name="Grupo 9" transform="translate(788.21 361.308)">
      <path id="Caminho_9" data-name="Caminho 9" d="M25205.9,9660.97h-5.4v-22h5.4Z" transform="translate(-25200.502 -9638.971)" fill="#ebd1a9" fill-rule="evenodd"/>
    </g>
    <g id="Grupo_10" data-name="Grupo 10" transform="translate(706.241 335)">
      <path id="Caminho_10" data-name="Caminho 10" d="M8954.26,4432.45l-27.155-25.21-26.975,25.21h16.144l1.229,1.1,14.623-13.744h-10.814l-9.458,8.684,2.372,2.12H8904.8l22.307-20.842,22.459,20.842h-9.679l2.367-2.12-8.44-7.68-5.441,5.042,8.232,7.7,1.23-1.1Z" transform="translate(-8900.13 -4407.24)" fill="#ebd1a9" fill-rule="evenodd"/>
    </g>
    <path id="Subtração_1" data-name="Subtração 1" d="M120.612,8.9H0V0H120.612V8.9Zm-74.7-6.83a2.628,2.628,0,0,0-1,.194,2.469,2.469,0,0,0-.846.545A2.411,2.411,0,0,0,43.3,4.591a2.392,2.392,0,0,0,.765,1.783,2.5,2.5,0,0,0,.846.549,2.628,2.628,0,0,0,1,.194,2.6,2.6,0,0,0,1-.194,2.545,2.545,0,0,0,.86-.549,2.491,2.491,0,0,0,.563-2.75,2.353,2.353,0,0,0-.563-.815,2.513,2.513,0,0,0-.851-.545A2.688,2.688,0,0,0,45.909,2.071ZM84.1,6.127h1.89l.253.86H87.56L85.876,2.179H84.2L82.513,6.987h1.333l.252-.86ZM79.573,2.179V6.987h1.35V2.179Zm-4.268,2.93h0l1.13,1.877h1.5L76.6,5.046a1.4,1.4,0,0,0,.815-.459,1.41,1.41,0,0,0,.279-.909A1.584,1.584,0,0,0,77.557,3a1.391,1.391,0,0,0-.41-.5,1.439,1.439,0,0,0-.558-.248,5.826,5.826,0,0,0-1.135-.072h-1.4V6.987h1.247V5.11ZM69.03,6.127h1.9l.248.86H72.5L70.809,2.179h-1.67L67.45,6.987h1.323l.257-.86ZM64.506,2.179V6.987h1.351V2.179Zm-4.767,0V6.987h2.989V5.866H61.072V2.179Zm-3.516,0V6.987h1.341V2.179Zm-5.767,0V6.987h1.377a9.277,9.277,0,0,0,1.2-.054,1.885,1.885,0,0,0,.621-.189,1.139,1.139,0,0,0,.472-.45,1.406,1.406,0,0,0,.167-.68,1.207,1.207,0,0,0-.3-.855,1.141,1.141,0,0,0-.815-.356,1.4,1.4,0,0,0,.68-.374.949.949,0,0,0,.207-.648,1.113,1.113,0,0,0-.144-.576,1,1,0,0,0-.4-.4,1.913,1.913,0,0,0-.572-.18A8.218,8.218,0,0,0,51.8,2.179Zm-10.4,1.654h0c.008.128.018.248.028.365v.025c.005.068.011.133.016.2.015.2.04.372.058.486l.284,2.08h1.247l-.747-4.808H39.616L38.873,4.65c-.039.127-.067.235-.092.331l-.012.047a2.871,2.871,0,0,0-.049.284,2.774,2.774,0,0,0-.126-.567.244.244,0,0,1-.031-.09l-.734-2.476H36.505l-.756,4.808h1.243l.288-2.08c.013-.107.027-.214.04-.318l0-.015.008-.064.017-.138c.006-.085.014-.17.022-.258s.017-.19.024-.283a4.319,4.319,0,0,0,.184.761l.013.055,0,.012h0c.007.032.013.057.016.075l.671,2.251h.892l.662-2.251.009-.031c.01-.031.021-.068.031-.113A5.037,5.037,0,0,0,40.057,3.833ZM32.566,2.179V6.987h1.346V2.179ZM52.153,6.005h-.464V4.956h.491a1.279,1.279,0,0,1,.667.121.475.475,0,0,1,.175.423.4.4,0,0,1-.193.387A1.366,1.366,0,0,1,52.153,6.005Zm-6.244,0a1.176,1.176,0,0,1-.914-.4,1.455,1.455,0,0,1-.365-1.018A1.459,1.459,0,0,1,45,3.583a1.233,1.233,0,0,1,1.828,0,1.443,1.443,0,0,1,.369,1.008,1.441,1.441,0,0,1-.36,1.008A1.193,1.193,0,0,1,45.909,6.005Zm39.8-.81H84.377l.5-1.589c.008-.03.016-.061.025-.091l0-.018c.016-.059.036-.132.051-.2.011-.044.023-.089.034-.132.017-.066.035-.135.052-.205.033.134.062.252.086.346v0l.016.063c.029.111.051.188.067.234L85.7,5.195Zm-15.058,0H69.319l.491-1.589c.03-.1.057-.2.082-.3l0-.007v0c.024-.095.049-.2.081-.338.047.174.082.31.108.414l.018.072,0,.013c.015.061.029.113.042.149l.5,1.589Zm4.912-.743h-.253V3.187h.27a.959.959,0,0,1,.621.153.62.62,0,0,1,.185.513.52.52,0,0,1-.194.45A1.076,1.076,0,0,1,75.558,4.452ZM51.96,4.1h-.27V3.129h.288a1.4,1.4,0,0,1,.671.108.424.424,0,0,1,.171.392.387.387,0,0,1-.185.365A1.46,1.46,0,0,1,51.96,4.1Z" transform="translate(673 386.1)" fill="#ebd1a9"/>
    <g id="Grupo_23" data-name="Grupo 23" transform="translate(742.823 387.189)">
      <path id="Caminho_23" data-name="Caminho 23" d="M16175.92,14786.02l-.941.4-.18-.418.937-.406Z" transform="translate(-16174.799 -14785.6)" fill="#ebd1a9" fill-rule="evenodd"/>
    </g>
  </g>
</svg>
